<?xml version="1.0" encoding="utf-8"?>
<!-- Generator: Adobe Illustrator 23.0.6, SVG Export Plug-In . SVG Version: 6.00 Build 0)  -->
<svg version="1.1" id="ec6adf44-6aca-4076-a7cb-bf082699348f"
	 xmlns="http://www.w3.org/2000/svg" xmlns:xlink="http://www.w3.org/1999/xlink" x="0px" y="0px" width="246.3px" height="198.1px"
	 viewBox="0 0 246.3 198.1" style="enable-background:new 0 0 246.3 198.1;" xml:space="preserve">
<style type="text/css">
	.st0{fill:#D769A8;}
	.st1{fill:#45ABBC;}
	.st2{fill:#ED9C21;}
	.st3{fill:#6CBE45;}
</style>
<title>creamNG-logo</title>
<path class="st0" d="M91.7,48.7h61.9c4.8,0,8.8,3.9,8.8,8.7c0,0,0,0,0,0l0,0v0.1l0,0c0,4.8-3.9,8.8-8.7,8.8c0,0,0,0,0,0h-62
	c-4.8,0-8.8-3.9-8.8-8.8c0,0,0,0,0,0l0,0C82.9,52.7,86.9,48.7,91.7,48.7L91.7,48.7z"/>
<path class="st1" d="M103,24.4h39.6c4.9,0,8.8,3.9,8.8,8.8l0,0c0,4.8-3.9,8.8-8.7,8.8H103c-4.8,0-8.8-3.9-8.8-8.7c0,0,0,0,0,0l0,0
	l0,0C94.2,28.3,98.1,24.4,103,24.4C103,24.4,103,24.4,103,24.4z"/>
<path class="st2" d="M128.2,17.6h-11c-4.8,0-8.8-3.9-8.8-8.8l0,0c14.3-6.6,10.8-4.6,19.8-8.8l0,0c4.8,0,8.7,4,8.8,8.8l0,0
	C137,13.6,133.1,17.5,128.2,17.6z"/>
<path class="st3" d="M156.7,73H88.7c-3.3,0-6.1,2.7-6.1,6.1l0,0l7.3,43.3c0,3.4,2.7,6.1,6.1,6.1h53.3c3.4,0.1,6.2-2.6,6.3-6
	c0,0,0,0,0,0v-0.2l7.3-43.3c0-3.4-2.7-6.1-6.1-6.1L156.7,73z M134.2,98.7c-4.5,0-5.4-1.9-5.4-1.9c-1.1-2.3-3.4-3.7-5.9-3.6
	c-1.9-0.1-3.8,0.7-5.2,2.2c-1.4,1.5-2.1,3.5-2,5.5c-0.1,2,0.6,4,2,5.5c2.7,2.8,7.1,2.8,9.9,0.1c0,0,0,0,0,0l0,0c0,0,0.1-0.1,0.1-0.1
	c0.5-0.5,0.9-1.1,1.3-1.7c0,0,0.6-1.8,5.1-1.8s5.4,1.8,5.4,1.8c-0.7,3.4-2.4,6.4-4.9,8.9c-3.1,2.9-7.3,4.5-11.5,4.3
	c-9.4,0.2-17.2-7.2-17.5-16.7c-0.2-9.4,7.2-17.2,16.7-17.5c0.3,0,0.6,0,0.8,0c4.5-0.1,8.9,1.6,12.1,4.9c2.2,2.3,3.7,5.2,4.4,8.3
	C138.1,98.3,136.1,98.9,134.2,98.7z"/>
<path class="st1" d="M49.3,149.8c-1.1-0.6-2.3-1-3.5-1c-1.3,0-2.5,0.3-3.6,1c-1.1,0.7-2,1.6-2.5,2.7c-1.2,2.4-1.2,5.3,0,7.7
	c0.6,1.1,1.5,2.1,2.5,2.7c1.1,0.7,2.3,1,3.6,1c1.2,0,2.3-0.3,3.4-0.8c1.2-0.6,2.2-1.3,3.1-2.2l4,4.3c-1.4,1.5-3.2,2.7-5.1,3.6
	c-4.1,1.9-8.9,1.8-12.9-0.4c-2.1-1.2-3.8-2.9-4.9-4.9c-1.2-2.1-1.8-4.5-1.8-7c-0.1-4.9,2.6-9.4,6.8-11.7c4-2.1,8.8-2.3,12.9-0.5
	c1.8,0.8,3.5,1.9,4.8,3.3l-4,4.8C51.4,151.3,50.4,150.4,49.3,149.8z"/>
<path class="st1" d="M68.6,150.1c1.2-0.6,2.5-1,3.8-0.9v6.1h-1c-1.4-0.1-2.7,0.3-3.8,1.1c-1,0.7-1.6,1.8-1.7,3v10.3h-6.7v-20.3h6.7
	v3.4C66.5,151.7,67.5,150.8,68.6,150.1z"/>
<path class="st1" d="M90.1,162.4l3.7,3.4c-2.3,2.7-5.7,4.2-9.3,4.1c-2,0-3.9-0.4-5.7-1.3c-1.6-0.8-3-2.1-3.9-3.6
	c-0.9-1.6-1.4-3.4-1.4-5.3c0-1.9,0.5-3.8,1.4-5.5c0.9-1.6,2.1-2.8,3.7-3.7c1.7-0.9,3.6-1.4,5.6-1.3c1.8,0,3.6,0.4,5.2,1.2
	c1.5,0.8,2.7,1.9,3.5,3.3c0.9,1.6,1.3,3.3,1.3,5.1l-13.5,3.3c0.3,0.8,0.9,1.5,1.7,2c0.8,0.5,1.6,0.8,2.5,0.7
	C87,164.8,88.9,163.9,90.1,162.4z M81.6,155.1c-0.8,0.9-1.2,2.1-1.2,3.4l7.5-1.9c-0.2-0.8-0.6-1.5-1.2-2c-0.6-0.5-1.4-0.7-2.1-0.7
	C83.4,153.9,82.4,154.3,81.6,155.1L81.6,155.1z"/>
<path class="st1" d="M118,149.4v20.3h-6.7v-2.6c-0.7,0.9-1.6,1.6-2.6,2.1c-1.1,0.5-2.2,0.7-3.4,0.7c-1.8,0-3.5-0.4-5-1.3
	c-1.4-0.9-2.6-2.1-3.4-3.6c-0.8-1.7-1.2-3.6-1.2-5.5c-0.1-1.9,0.3-3.7,1.1-5.4c0.7-1.5,1.9-2.7,3.3-3.6c1.5-0.9,3.2-1.3,4.9-1.3
	c1.2,0,2.3,0.2,3.4,0.8c1,0.5,1.9,1.2,2.6,2.1v-2.6L118,149.4z M110,163.5c0.8-0.9,1.3-2,1.3-3.2V159c-0.1-1.2-0.5-2.3-1.3-3.2
	c-0.8-0.8-1.9-1.2-3-1.2c-1.2,0-2.4,0.5-3.2,1.4c-1.6,2.2-1.6,5.1,0,7.3c0.8,0.9,1.9,1.4,3.2,1.4C108.1,164.8,109.2,164.3,110,163.5
	z"/>
<path class="st1" d="M155.3,151.3c1.4,1.5,2.1,3.6,2,5.6v12.8h-6.6v-10.9c0-1-0.3-2-0.9-2.7c-0.6-0.7-1.5-1-2.4-1
	c-1.1,0-2.1,0.5-2.8,1.3c-0.7,0.9-1.1,2.1-1,3.3v10h-6.6v-10.8c0-1-0.3-2-0.9-2.7c-0.6-0.7-1.5-1-2.4-1c-1.1,0-2.1,0.5-2.8,1.3
	c-0.7,0.9-1.1,2.1-1,3.3v10h-6.6v-20.2h6.6v3.3c0.6-1.1,1.5-2,2.6-2.7c1.2-0.6,2.5-0.9,3.9-0.9c1.5,0,3,0.4,4.2,1.2
	c1.2,0.8,2,2,2.5,3.3c0.6-1.4,1.5-2.6,2.8-3.4c1.3-0.8,2.8-1.2,4.3-1.1C152,149.1,153.9,149.9,155.3,151.3z"/>
<path class="st1" d="M181.5,144.3c1.4,0.8,2.5,2,3.2,3.4c0.8,1.6,1.2,3.3,1.1,5v17.1h-7v-15.4c0.1-1.3-0.4-2.6-1.2-3.6
	c-0.9-0.9-2.1-1.4-3.4-1.4c-1.5-0.1-3,0.5-4,1.6c-1,1.1-1.6,2.6-1.6,4.1v14.6h-6.9v-26.2h6.9v3.8c0.9-1.3,2.1-2.4,3.5-3.1
	c1.5-0.7,3.1-1.1,4.7-1.1C178.5,143,180.1,143.4,181.5,144.3z"/>
<path class="st1" d="M207.7,156.1h5.9v13.6h-5v-1.8c-1,0.7-2.1,1.2-3.2,1.6c-1.1,0.4-2.3,0.6-3.4,0.6c-4.8,0-9.2-2.5-11.6-6.6
	c-1.2-2.1-1.8-4.6-1.7-7c-0.1-4.9,2.6-9.5,7-11.7c2.3-1.2,4.8-1.8,7.3-1.8c2,0,4,0.4,5.9,1.1c1.8,0.6,3.5,1.6,5,2.9l-3.9,4.8
	c-0.9-0.9-2-1.6-3.3-2.1c-1.2-0.5-2.4-0.8-3.7-0.8c-2.7,0-5.1,1.4-6.4,3.8c-0.7,1.2-1,2.6-1,3.9c0,1.4,0.3,2.8,0.9,4
	c0.6,1.1,1.4,2.1,2.5,2.8c1.1,0.7,2.3,1,3.6,1c0.9,0,1.9-0.2,2.7-0.6c0.8-0.4,1.6-1,2.2-1.7L207.7,156.1z"/>
<g>
	<path class="st3" d="M50.6,180.1v9.3c0,0.9-0.2,1.8-0.7,2.6c-0.5,0.8-1.1,1.4-1.9,1.8c-0.9,0.4-1.8,0.6-2.8,0.6
		c-1,0-1.9-0.2-2.9-0.5c-0.8-0.3-1.6-0.8-2.2-1.4l1.1-1.7c0.5,0.5,1.1,0.9,1.7,1.1c0.6,0.3,1.3,0.4,2,0.4c0.6,0,1.2-0.1,1.7-0.3
		c0.5-0.2,0.9-0.6,1.2-1c0.3-0.5,0.4-1,0.4-1.5V188c-0.4,0.6-0.9,1.1-1.5,1.4c-0.6,0.3-1.4,0.5-2.1,0.5c-0.8,0-1.7-0.2-2.4-0.6
		c-0.7-0.4-1.3-1-1.6-1.6c-0.4-0.8-0.6-1.7-0.6-2.5v-5h2.4v4.8c0,0.7,0.2,1.5,0.8,2c0.5,0.5,1.3,0.8,2,0.8c0.8,0,1.5-0.3,2.1-0.9
		c0.6-0.6,0.9-1.4,1-2.2v-4.4L50.6,180.1z"/>
	<path class="st3" d="M60,183.6c0.7,0.4,1.3,1,1.8,1.7c0.4,0.8,0.6,1.6,0.6,2.5c0,0.9-0.2,1.8-0.6,2.5c-0.4,0.7-1,1.3-1.8,1.7
		c-0.8,0.4-1.7,0.6-2.6,0.6c-0.9,0-1.8-0.2-2.6-0.6c-0.7-0.4-1.3-1-1.8-1.7c-0.4-0.8-0.6-1.7-0.6-2.5c0-0.9,0.2-1.7,0.6-2.5
		c0.4-0.7,1-1.3,1.8-1.7c0.8-0.4,1.7-0.6,2.6-0.6C58.3,183,59.2,183.2,60,183.6z M55.5,185.8c-1,1.2-1,2.9,0,4.1
		c0.5,0.6,1.2,0.8,2,0.8c0.7,0,1.4-0.3,1.9-0.8c1-1.2,1-2.9,0-4.1c-0.5-0.5-1.2-0.8-1.9-0.8C56.7,184.9,56,185.2,55.5,185.8
		L55.5,185.8z"/>
	<path class="st3" d="M73.2,183.1v9.5h-2.3v-1.8c-0.6,1.2-1.9,2-3.3,1.9c-0.9,0-1.9-0.3-2.5-1c-0.6-0.7-1-1.7-0.9-2.7v-6h2.3v5.3
		c0,0.6,0.2,1.1,0.5,1.6c0.4,0.4,0.9,0.6,1.5,0.6c0.7,0,1.3-0.3,1.7-0.8c0.4-0.5,0.7-1.2,0.6-1.9V183L73.2,183.1z"/>
	<path class="st3" d="M79.7,183.5c0.6-0.3,1.2-0.5,1.9-0.5v2.2c-0.8-0.1-1.7,0.1-2.3,0.7c-0.6,0.5-0.9,1.3-0.9,2.1v4.6h-2.3v-9.5
		h2.3v1.8C78.7,184.3,79.1,183.8,79.7,183.5z"/>
	<path class="st3" d="M96.7,183.1v9.5h-2.3v-1.5c-0.3,0.5-0.8,0.9-1.3,1.2c-0.6,0.3-1.2,0.4-1.9,0.4c-0.8,0-1.7-0.2-2.4-0.6
		c-0.7-0.4-1.2-1-1.6-1.7c-0.4-0.8-0.6-1.7-0.6-2.6c0-0.9,0.2-1.7,0.6-2.5c0.4-0.7,0.9-1.3,1.6-1.7c0.7-0.4,1.5-0.6,2.3-0.6
		c0.6,0,1.3,0.1,1.9,0.4c0.5,0.3,1,0.7,1.3,1.2v-1.5H96.7z M93.6,190.1c0.5-0.5,0.8-1.2,0.8-1.9v-0.7c0-0.7-0.3-1.4-0.8-1.9
		c-1.1-1-2.7-0.9-3.8,0.1c-1,1.2-1,3,0,4.2C90.8,191,92.5,191,93.6,190.1z"/>
	<path class="st3" d="M103.6,185c-0.7,0-1.4,0.3-1.9,0.8c-0.5,0.6-0.7,1.3-0.7,2c0,0.8,0.2,1.5,0.7,2.1c0.5,0.5,1.2,0.8,1.9,0.8
		c1,0.1,1.9-0.4,2.6-1.1l1.4,1.2c-0.4,0.6-1,1.1-1.7,1.4c-0.8,0.3-1.6,0.5-2.4,0.5c-0.9,0-1.7-0.2-2.5-0.6c-0.7-0.4-1.3-1-1.7-1.7
		c-0.4-0.8-0.6-1.6-0.6-2.5c0-0.9,0.2-1.8,0.6-2.5c0.4-0.7,1-1.3,1.7-1.7c0.8-0.4,1.6-0.6,2.5-0.6c0.8,0,1.6,0.1,2.3,0.5
		c0.7,0.3,1.2,0.7,1.7,1.3l-1.4,1.3C105.4,185.3,104.5,185,103.6,185z"/>
	<path class="st3" d="M113.3,185c-0.7,0-1.4,0.3-1.9,0.8c-0.5,0.5-0.7,1.3-0.7,2c0,0.8,0.2,1.5,0.7,2.1c0.5,0.5,1.2,0.8,1.9,0.8
		c1,0.1,1.9-0.3,2.6-1.1l1.4,1.2c-0.4,0.6-1,1.1-1.7,1.4c-0.8,0.3-1.6,0.5-2.4,0.5c-0.9,0-1.7-0.2-2.5-0.6c-0.7-0.4-1.3-1-1.7-1.7
		c-0.8-1.6-0.8-3.5,0-5.1c0.4-0.7,1-1.3,1.7-1.7c0.8-0.4,1.6-0.6,2.5-0.6c0.8,0,1.6,0.1,2.3,0.5c0.7,0.3,1.2,0.7,1.7,1.3l-1.4,1.3
		C115.1,185.3,114.2,185,113.3,185z"/>
	<path class="st3" d="M124.6,190.5c0.5-0.2,0.9-0.6,1.2-1l1.3,1.2c-1,1.3-2.6,2-4.2,1.9c-0.9,0-1.8-0.2-2.6-0.6
		c-0.7-0.4-1.3-1-1.8-1.7c-0.4-0.8-0.6-1.6-0.6-2.5c0-0.9,0.2-1.7,0.6-2.5c0.4-0.7,1-1.3,1.7-1.7c0.8-0.4,1.7-0.6,2.6-0.6
		c2.3-0.1,4.3,1.6,4.4,3.9c0,0.1,0,0.2,0,0.3l-6.8,1.9c0.2,0.5,0.6,0.9,1,1.2c0.5,0.3,1,0.4,1.6,0.4
		C123.7,190.8,124.2,190.7,124.6,190.5z M121.1,185.5c-0.5,0.6-0.7,1.3-0.7,2.1l4.8-1.4c-0.3-0.9-1.2-1.5-2.1-1.4
		C122.3,184.8,121.6,185,121.1,185.5L121.1,185.5z"/>
	<path class="st3" d="M133.5,185c-0.4-0.1-0.9-0.2-1.4-0.2c-0.3,0-0.6,0.1-0.9,0.2c-0.2,0.1-0.4,0.4-0.3,0.6c0,0.3,0.2,0.6,0.4,0.7
		c0.4,0.2,0.9,0.4,1.4,0.5c0.6,0.2,1.1,0.4,1.6,0.6c0.4,0.2,0.8,0.5,1.1,0.9c0.3,0.4,0.5,1,0.5,1.5c0,0.8-0.4,1.7-1.1,2.1
		c-0.8,0.5-1.7,0.8-2.7,0.8c-0.7,0-1.5-0.1-2.1-0.4c-0.7-0.2-1.3-0.5-1.8-1l0.8-1.6c0.4,0.4,1,0.7,1.5,0.9c0.5,0.2,1.1,0.3,1.7,0.3
		c0.3,0,0.7-0.1,1-0.2c0.2-0.1,0.4-0.4,0.4-0.7c0-0.3-0.2-0.6-0.4-0.7c-0.5-0.2-0.9-0.4-1.4-0.6c-0.5-0.2-1.1-0.3-1.6-0.6
		c-0.4-0.2-0.8-0.5-1.1-0.8c-0.3-0.4-0.5-0.9-0.4-1.5c0-0.8,0.3-1.6,1-2.1c0.8-0.5,1.7-0.8,2.6-0.7c0.6,0,1.3,0.1,1.9,0.3
		c0.6,0.2,1.1,0.4,1.6,0.8l-0.8,1.7C134.4,185.4,133.9,185.2,133.5,185z"/>
	<path class="st3" d="M142,185c-0.4-0.1-0.9-0.2-1.4-0.2c-0.3,0-0.6,0.1-0.9,0.2c-0.2,0.1-0.4,0.4-0.3,0.6c0,0.3,0.2,0.6,0.4,0.7
		c0.4,0.2,0.9,0.4,1.4,0.5c0.6,0.2,1.1,0.4,1.6,0.6c0.4,0.2,0.8,0.5,1.1,0.9c0.3,0.4,0.5,1,0.5,1.5c0,0.8-0.4,1.7-1.1,2.1
		c-0.8,0.5-1.7,0.8-2.7,0.8c-0.7,0-1.5-0.1-2.2-0.4c-0.7-0.2-1.3-0.5-1.8-1l0.8-1.6c0.4,0.4,1,0.7,1.5,0.9c0.5,0.2,1.1,0.3,1.7,0.3
		c0.3,0,0.7-0.1,1-0.2c0.2-0.1,0.4-0.4,0.4-0.7c0-0.3-0.2-0.6-0.4-0.7c-0.5-0.2-0.9-0.4-1.4-0.6c-0.5-0.2-1.1-0.3-1.6-0.6
		c-0.4-0.2-0.7-0.5-1-0.8c-0.3-0.4-0.5-0.9-0.4-1.5c0-0.8,0.3-1.6,1-2.1c0.8-0.5,1.7-0.8,2.6-0.7c0.6,0,1.3,0.1,1.9,0.3
		c0.6,0.2,1.1,0.4,1.6,0.8l-0.8,1.7C143,185.4,142.5,185.2,142,185z"/>
	<path class="st3" d="M148.4,179.4c0.3,0.3,0.4,0.6,0.4,1c0,0.4-0.1,0.7-0.4,1c-0.5,0.5-1.4,0.5-1.9,0c-0.3-0.3-0.4-0.6-0.4-1
		c0-0.4,0.1-0.7,0.4-1C147.1,178.9,147.9,178.9,148.4,179.4z M146.4,183.1h2.3v9.5h-2.3V183.1z"/>
	<path class="st3" d="M159.5,183.6c0.7,0.4,1.2,1,1.6,1.7c0.7,1.6,0.7,3.4,0,5c-0.3,0.7-0.9,1.3-1.6,1.7c-0.7,0.4-1.5,0.6-2.3,0.6
		c-0.7,0-1.3-0.1-1.9-0.4c-0.5-0.3-1-0.7-1.4-1.2v1.6h-2.3v-13.1h2.3v5.2c0.3-0.5,0.8-0.9,1.3-1.2c0.6-0.3,1.2-0.4,1.9-0.4
		C157.9,183,158.8,183.2,159.5,183.6z M158.5,189.9c0.5-0.6,0.8-1.3,0.7-2.1c0-0.7-0.2-1.5-0.7-2c-1.1-1.1-2.8-1.1-3.8,0
		c0,0,0,0,0,0c-0.5,0.5-0.8,1.3-0.8,2c0,0.8,0.2,1.5,0.8,2.1C155.7,190.9,157.4,190.9,158.5,189.9
		C158.4,189.9,158.5,189.9,158.5,189.9L158.5,189.9z"/>
	<path class="st3" d="M166,190.3c0.2,0.2,0.4,0.3,0.6,0.3c0.3,0,0.7-0.1,0.9-0.3l0.3,1.9c-0.6,0.3-1.2,0.5-1.8,0.5
		c-0.7,0-1.4-0.3-1.8-0.8c-0.5-0.6-0.8-1.4-0.7-2.2v-10.3h2.3v10.1C165.7,189.8,165.8,190.1,166,190.3z"/>
	<path class="st3" d="M175,190.5c0.5-0.2,0.9-0.6,1.2-1l1.4,1.2c-1,1.3-2.6,2-4.2,1.9c-0.9,0-1.8-0.2-2.6-0.6
		c-0.7-0.4-1.3-1-1.8-1.7c-0.4-0.8-0.6-1.6-0.6-2.5c0-0.9,0.2-1.7,0.6-2.5c0.4-0.7,1-1.3,1.7-1.7c0.8-0.4,1.7-0.6,2.6-0.6
		c2.3-0.1,4.3,1.6,4.4,3.9c0,0.1,0,0.2,0,0.3l-6.8,1.9c0.2,0.5,0.6,0.9,1,1.2c0.5,0.3,1,0.4,1.6,0.4
		C174.1,190.8,174.6,190.7,175,190.5z M171.5,185.5c-0.5,0.6-0.8,1.3-0.7,2.1l4.8-1.4c-0.3-0.9-1.2-1.5-2.2-1.4
		C172.6,184.8,171.9,185,171.5,185.5L171.5,185.5z"/>
	<path class="st3" d="M181.2,180.1h2.4v10.3h5.4v2.1h-7.7V180.1z"/>
	<path class="st3" d="M192.8,179.4c0.3,0.3,0.4,0.6,0.4,1c0,0.4-0.1,0.7-0.4,1c-0.2,0.3-0.6,0.4-0.9,0.4c-0.4,0-0.7-0.1-0.9-0.4
		c-0.3-0.3-0.4-0.6-0.4-1c0-0.4,0.1-0.7,0.4-1c0.2-0.3,0.6-0.4,0.9-0.4C192.2,179,192.5,179.1,192.8,179.4z M190.7,183.1h2.3v9.5
		h-2.3V183.1z"/>
	<path class="st3" d="M203.8,183.6c0.7,0.4,1.2,1,1.6,1.7c0.4,0.8,0.6,1.7,0.6,2.5c0,0.9-0.2,1.7-0.6,2.5c-0.3,0.7-0.9,1.3-1.6,1.7
		c-0.7,0.4-1.5,0.6-2.3,0.6c-0.7,0-1.3-0.1-1.9-0.4c-0.5-0.3-1-0.7-1.3-1.2v1.6h-2.3v-13.2h2.3v5.2c0.3-0.5,0.8-0.9,1.3-1.2
		c0.6-0.3,1.2-0.4,1.9-0.4C202.3,183,203.1,183.2,203.8,183.6z M202.8,189.9c0.5-0.6,0.8-1.3,0.8-2.1c0-0.7-0.3-1.5-0.8-2
		c-0.5-0.5-1.2-0.8-1.9-0.8c-0.7,0-1.4,0.3-1.9,0.8c-0.5,0.5-0.8,1.3-0.7,2c0,0.8,0.2,1.5,0.7,2.1c0.5,0.5,1.2,0.8,1.9,0.8
		C201.6,190.7,202.3,190.4,202.8,189.9L202.8,189.9z"/>
</g>
</svg>
