<svg id="ec6adf44-6aca-4076-a7cb-bf082699348f" data-name="d8439961-3374-4dd3-b19c-fd4dceea816d" xmlns="http://www.w3.org/2000/svg" width="246.26" height="198.1" viewBox="0 0 246.26 198.1">
  <title>creamNG-logo</title>
  <path d="M91.74,48.7h61.92a8.78,8.78,0,0,1,8.84,8.72h0v.08h0a8.77,8.77,0,0,1-8.75,8.79h-62a8.78,8.78,0,0,1-8.8-8.78h0a8.8,8.8,0,0,1,8.78-8.8Z" style="fill: #d769a8"/>
  <path d="M103,24.35H142.6a8.8,8.8,0,0,1,8.8,8.78h0a8.79,8.79,0,0,1-8.74,8.8H103a8.77,8.77,0,0,1-8.79-8.77v0h0A8.79,8.79,0,0,1,103,24.35Z" style="fill: #45abbc"/>
  <path d="M128.21,17.58h-11a8.82,8.82,0,0,1-8.79-8.79h0c14.32-6.6,10.75-4.61,19.81-8.79h0A8.84,8.84,0,0,1,137,8.79h0A8.85,8.85,0,0,1,128.21,17.58Z" style="fill: #ed9c21"/>
  <path d="M156.66,73H88.74a6.12,6.12,0,0,0-6.08,6.08h0L90,122.35a6.11,6.11,0,0,0,6.11,6.11h53.25a6.12,6.12,0,0,0,6.26-6v-.18L162.94,79a6.11,6.11,0,0,0-6.1-6.11Zm-22.5,25.7c-4.53,0-5.41-1.88-5.41-1.88a6.21,6.21,0,0,0-5.87-3.57,6.72,6.72,0,0,0-5.15,2.15,7.62,7.62,0,0,0-2,5.49,7.34,7.34,0,0,0,2,5.49,7,7,0,0,0,9.9.1h0a.94.94,0,0,0,.1-.1,7.44,7.44,0,0,0,1.26-1.69s.58-1.77,5.11-1.77,5.37,1.77,5.37,1.77a17.74,17.74,0,0,1-4.87,8.87,16,16,0,0,1-11.52,4.3,17.07,17.07,0,1,1,0-34.13,16.29,16.29,0,0,1,12.06,4.87,18.36,18.36,0,0,1,4.45,8.3A6.82,6.82,0,0,1,134.16,98.7Z" style="fill: #6cbe45"/>
  <path d="M49.29,149.8a7.23,7.23,0,0,0-3.48-1,6.87,6.87,0,0,0-3.61,1,7.09,7.09,0,0,0-2.54,2.73,8.46,8.46,0,0,0,0,7.74A7,7,0,0,0,42.2,163a6.76,6.76,0,0,0,3.61,1,7.85,7.85,0,0,0,3.36-.82,10.73,10.73,0,0,0,3.14-2.24l4,4.3a16,16,0,0,1-5.07,3.57,14.08,14.08,0,0,1-12.85-.45,13.13,13.13,0,0,1-4.94-4.9,13.73,13.73,0,0,1-1.79-7,13.06,13.06,0,0,1,6.85-11.7,14.87,14.87,0,0,1,12.92-.54,14.32,14.32,0,0,1,4.82,3.31l-4,4.79A9.69,9.69,0,0,0,49.29,149.8Z" style="fill: #45abbc"/>
  <path d="M68.6,150.12a7.61,7.61,0,0,1,3.79-.94v6.09h-1a6.15,6.15,0,0,0-3.81,1.1,4.24,4.24,0,0,0-1.68,3V169.7H59.23V149.44h6.66v3.36A7.33,7.33,0,0,1,68.6,150.12Z" style="fill: #45abbc"/>
  <path d="M90.11,162.41l3.74,3.36a11.57,11.57,0,0,1-9.27,4.11,12.33,12.33,0,0,1-5.72-1.27A9.26,9.26,0,0,1,75,165a10.45,10.45,0,0,1-1.37-5.3A11.07,11.07,0,0,1,75,154.24a9.16,9.16,0,0,1,3.69-3.66,11.56,11.56,0,0,1,5.59-1.31,11.3,11.3,0,0,1,5.23,1.16A8.69,8.69,0,0,1,93,153.78a10.38,10.38,0,0,1,1.33,5.08l-13.48,3.26a4.6,4.6,0,0,0,1.65,2,4.4,4.4,0,0,0,2.54.73A6.75,6.75,0,0,0,90.11,162.41ZM81.6,155.1a5.26,5.26,0,0,0-1.21,3.35l7.51-1.87a3.66,3.66,0,0,0-1.23-2,3.32,3.32,0,0,0-2.13-.67,3.76,3.76,0,0,0-2.93,1.2Z" style="fill: #45abbc"/>
  <path d="M118,149.44V169.7h-6.65v-2.55a7.15,7.15,0,0,1-2.56,2.07,7.6,7.6,0,0,1-3.38.73,9.25,9.25,0,0,1-5-1.31A8.74,8.74,0,0,1,97.06,165a12.35,12.35,0,0,1-1.18-5.48A11.91,11.91,0,0,1,97,154.14a8.43,8.43,0,0,1,3.33-3.59,9.42,9.42,0,0,1,4.94-1.27,7.67,7.67,0,0,1,3.4.75,7.38,7.38,0,0,1,2.58,2.09V149.5Zm-8,14.06a5,5,0,0,0,1.35-3.18V159a5.16,5.16,0,0,0-1.35-3.18,3.92,3.92,0,0,0-3-1.2,4,4,0,0,0-3.16,1.4,6.26,6.26,0,0,0,0,7.33,4,4,0,0,0,3.16,1.4A3.92,3.92,0,0,0,110,163.5Z" style="fill: #45abbc"/>
  <path d="M155.31,151.27a7.83,7.83,0,0,1,2,5.65V169.7h-6.65V158.83a3.94,3.94,0,0,0-.9-2.71,3.13,3.13,0,0,0-2.43-1,3.53,3.53,0,0,0-2.79,1.29,5,5,0,0,0-1,3.27v10h-6.65V158.83a3.94,3.94,0,0,0-.9-2.71,3.13,3.13,0,0,0-2.43-1,3.56,3.56,0,0,0-2.8,1.29,5,5,0,0,0-1,3.27v10h-6.62V149.44h6.62v3.33a7.1,7.1,0,0,1,2.63-2.67,7.89,7.89,0,0,1,3.87-.92,7.33,7.33,0,0,1,4.22,1.2,6.59,6.59,0,0,1,2.5,3.33,7.21,7.21,0,0,1,2.79-3.38,7.86,7.86,0,0,1,4.28-1.14A6.92,6.92,0,0,1,155.31,151.27Z" style="fill: #45abbc"/>
  <path d="M181.51,144.25a8.06,8.06,0,0,1,3.16,3.36,10.83,10.83,0,0,1,1.12,5V169.7h-7V154.3a5.19,5.19,0,0,0-1.22-3.62,4.35,4.35,0,0,0-3.36-1.38,5.2,5.2,0,0,0-4,1.64,5.85,5.85,0,0,0-1.55,4.15V169.7h-6.85V143.46h6.85v3.81a9.27,9.27,0,0,1,3.46-3.12,10.21,10.21,0,0,1,4.73-1.1A9,9,0,0,1,181.51,144.25Z" style="fill: #45abbc"/>
  <path d="M207.73,156.06h5.93V169.7h-5v-1.77a13.26,13.26,0,0,1-3.2,1.64,10,10,0,0,1-3.42.6,13.27,13.27,0,0,1-11.63-6.65,14,14,0,0,1-1.74-7,13,13,0,0,1,7-11.74A15.28,15.28,0,0,1,203,143a17.19,17.19,0,0,1,5.89,1.07,15.86,15.86,0,0,1,5,2.86L210,151.7a11,11,0,0,0-3.25-2.13,9.22,9.22,0,0,0-3.66-.79,7.25,7.25,0,0,0-6.43,3.78,8.06,8.06,0,0,0-1,3.93,8.54,8.54,0,0,0,.92,4,7,7,0,0,0,2.52,2.79,6.58,6.58,0,0,0,3.59,1,6.3,6.3,0,0,0,2.73-.62,7.06,7.06,0,0,0,2.21-1.66Z" style="fill: #45abbc"/>
  <g>
    <path d="M10.57,182.15v9.29a5,5,0,0,1-.67,2.61A4.61,4.61,0,0,1,8,195.82a6,6,0,0,1-2.78.63,7.93,7.93,0,0,1-2.86-.54A6.24,6.24,0,0,1,.12,194.5l1.09-1.71a5.09,5.09,0,0,0,1.71,1.1,5.16,5.16,0,0,0,2,.43A3.85,3.85,0,0,0,6.62,194a2.92,2.92,0,0,0,1.16-1,2.8,2.8,0,0,0,.42-1.52v-1.51a4.18,4.18,0,0,1-1.54,1.42,4.61,4.61,0,0,1-2.08.52,4.8,4.8,0,0,1-2.38-.59,4,4,0,0,1-1.62-1.65A5,5,0,0,1,0,187.13v-5H2.38v4.75a2.58,2.58,0,0,0,.77,2,2.71,2.71,0,0,0,2,.76,3,3,0,0,0,2.08-.85,3.44,3.44,0,0,0,1-2.17v-4.45Z" style="fill: #6cbe45"/>
    <path d="M20,185.61a4.34,4.34,0,0,1,1.76,1.69,5,5,0,0,1,.63,2.51,5,5,0,0,1-.63,2.54,4.36,4.36,0,0,1-1.76,1.7,5.45,5.45,0,0,1-2.6.61,5.58,5.58,0,0,1-2.63-.61,4.36,4.36,0,0,1-1.76-1.7,5,5,0,0,1-.63-2.54,5,5,0,0,1,.63-2.51,4.34,4.34,0,0,1,1.76-1.69,5.58,5.58,0,0,1,2.63-.61A5.45,5.45,0,0,1,20,185.61Zm-4.55,2.16a3.25,3.25,0,0,0,0,4.15,2.53,2.53,0,0,0,2,.8,2.49,2.49,0,0,0,1.92-.8,3.28,3.28,0,0,0,0-4.15,2.53,2.53,0,0,0-1.92-.8A2.56,2.56,0,0,0,15.49,187.77Z" style="fill: #6cbe45"/>
    <path d="M33.2,185.07v9.5H30.87v-1.76a3.41,3.41,0,0,1-3.3,1.85,3.32,3.32,0,0,1-2.52-1,3.74,3.74,0,0,1-.92-2.66v-6h2.32v5.27a2.19,2.19,0,0,0,.54,1.57,2,2,0,0,0,1.5.56,2.17,2.17,0,0,0,1.74-.78,2.88,2.88,0,0,0,.64-1.93v-4.69Z" style="fill: #6cbe45"/>
    <path d="M39.68,185.49a3.86,3.86,0,0,1,1.92-.5v2.23a3.15,3.15,0,0,0-2.35.68,2.66,2.66,0,0,0-.87,2.09v4.58H36.07v-9.5h2.31v1.83A3.48,3.48,0,0,1,39.68,185.49Z" style="fill: #6cbe45"/>
    <path d="M56.7,185.07v9.5H54.4v-1.51a3.61,3.61,0,0,1-1.32,1.2,4.11,4.11,0,0,1-1.86.41,4.5,4.5,0,0,1-2.37-.61,4.11,4.11,0,0,1-1.58-1.72,5.5,5.5,0,0,1-.57-2.55,5.37,5.37,0,0,1,.57-2.51,4.09,4.09,0,0,1,1.58-1.69,4.56,4.56,0,0,1,2.35-.6,4.18,4.18,0,0,1,1.87.41,3.56,3.56,0,0,1,1.33,1.2v-1.53Zm-3.14,7a2.83,2.83,0,0,0,.84-1.86v-.67a2.79,2.79,0,0,0-.84-1.85,2.76,2.76,0,0,0-3.78.1,3.24,3.24,0,0,0,0,4.17,2.75,2.75,0,0,0,3.78.11Z" style="fill: #6cbe45"/>
    <path d="M63.61,187a2.44,2.44,0,0,0-1.88.78,2.85,2.85,0,0,0-.71,2,2.92,2.92,0,0,0,.71,2.06,2.44,2.44,0,0,0,1.88.78,3,3,0,0,0,2.55-1.12l1.44,1.19a4.26,4.26,0,0,1-1.69,1.42,5.64,5.64,0,0,1-2.43.5,5.1,5.1,0,0,1-2.49-.61,4.32,4.32,0,0,1-1.7-1.69,5.15,5.15,0,0,1-.6-2.51,5.21,5.21,0,0,1,.61-2.54,4.3,4.3,0,0,1,1.71-1.7,5.1,5.1,0,0,1,2.51-.61,5.51,5.51,0,0,1,2.31.46,4.24,4.24,0,0,1,1.66,1.28l-1.4,1.33A3.24,3.24,0,0,0,63.61,187Z" style="fill: #6cbe45"/>
    <path d="M73.27,187a2.44,2.44,0,0,0-1.87.78,2.85,2.85,0,0,0-.72,2,2.92,2.92,0,0,0,.72,2.06,2.44,2.44,0,0,0,1.87.78,3,3,0,0,0,2.56-1.12l1.44,1.19a4.26,4.26,0,0,1-1.69,1.42,5.64,5.64,0,0,1-2.43.5,5.1,5.1,0,0,1-2.49-.61,4.32,4.32,0,0,1-1.7-1.69,5.57,5.57,0,0,1,0-5.05,4.3,4.3,0,0,1,1.71-1.7,5.1,5.1,0,0,1,2.51-.61,5.51,5.51,0,0,1,2.31.46,4.24,4.24,0,0,1,1.66,1.28l-1.4,1.33A3.24,3.24,0,0,0,73.27,187Z" style="fill: #6cbe45"/>
    <path d="M84.6,192.47a3.72,3.72,0,0,0,1.24-1l1.34,1.24A5.16,5.16,0,0,1,83,194.66a5.43,5.43,0,0,1-2.6-.61,4.34,4.34,0,0,1-1.76-1.69,5,5,0,0,1-.63-2.53,5.12,5.12,0,0,1,.6-2.51,4.2,4.2,0,0,1,1.72-1.7,5.19,5.19,0,0,1,2.58-.62,4.19,4.19,0,0,1,4.45,4.24l-6.76,1.92a2.68,2.68,0,0,0,1,1.22,2.78,2.78,0,0,0,1.55.43A3.1,3.1,0,0,0,84.6,192.47Zm-3.54-4.93a3,3,0,0,0-.71,2.08l4.78-1.37A2.13,2.13,0,0,0,83,186.81,2.52,2.52,0,0,0,81.06,187.54Z" style="fill: #6cbe45"/>
    <path d="M93.46,187a4.4,4.4,0,0,0-1.36-.23,1.89,1.89,0,0,0-.93.2.69.69,0,0,0-.35.63.74.74,0,0,0,.44.68,7,7,0,0,0,1.37.51,13.74,13.74,0,0,1,1.63.59,3.11,3.11,0,0,1,1.11.87,2.3,2.3,0,0,1,.47,1.52,2.45,2.45,0,0,1-1.06,2.13,4.54,4.54,0,0,1-2.68.75,6.87,6.87,0,0,1-2.15-.35,4.91,4.91,0,0,1-1.77-1l.8-1.61a4.6,4.6,0,0,0,1.52.86,5.06,5.06,0,0,0,1.69.31,2,2,0,0,0,1-.22.73.73,0,0,0,.38-.67.8.8,0,0,0-.44-.74,7.68,7.68,0,0,0-1.44-.55,12.65,12.65,0,0,1-1.56-.56,2.87,2.87,0,0,1-1.05-.83,2.28,2.28,0,0,1-.44-1.47,2.49,2.49,0,0,1,1-2.14,4.26,4.26,0,0,1,2.56-.73,6.9,6.9,0,0,1,1.86.26,5.88,5.88,0,0,1,1.62.75l-.84,1.67A6.67,6.67,0,0,0,93.46,187Z" style="fill: #6cbe45"/>
    <path d="M102,187a4.4,4.4,0,0,0-1.36-.23,1.89,1.89,0,0,0-.93.2.69.69,0,0,0-.35.63.74.74,0,0,0,.44.68,7.22,7.22,0,0,0,1.37.51,14,14,0,0,1,1.64.59,3.17,3.17,0,0,1,1.1.87,2.3,2.3,0,0,1,.47,1.52,2.45,2.45,0,0,1-1.06,2.13,4.54,4.54,0,0,1-2.68.75,6.87,6.87,0,0,1-2.15-.35,5,5,0,0,1-1.77-1l.8-1.61a4.6,4.6,0,0,0,1.52.86,5.1,5.1,0,0,0,1.69.31,2,2,0,0,0,1-.22.73.73,0,0,0,.38-.67.8.8,0,0,0-.44-.74,7.68,7.68,0,0,0-1.44-.55,12.65,12.65,0,0,1-1.56-.56,2.87,2.87,0,0,1-1-.83,2.34,2.34,0,0,1-.44-1.47,2.49,2.49,0,0,1,1-2.14,4.26,4.26,0,0,1,2.56-.73,6.9,6.9,0,0,1,1.86.26,5.75,5.75,0,0,1,1.62.75l-.83,1.67A6.74,6.74,0,0,0,102,187Z" style="fill: #6cbe45"/>
    <path d="M108.44,181.38a1.39,1.39,0,0,1,.37,1,1.34,1.34,0,0,1-.37,1,1.33,1.33,0,0,1-1.88,0,1.34,1.34,0,0,1-.37-1,1.39,1.39,0,0,1,.37-1,1.33,1.33,0,0,1,1.88,0Zm-2.08,3.69h2.31v9.5h-2.31Z" style="fill: #6cbe45"/>
    <path d="M119.47,185.62a4,4,0,0,1,1.57,1.71,6,6,0,0,1,0,5,4,4,0,0,1-1.56,1.68,4.48,4.48,0,0,1-2.34.61,4,4,0,0,1-1.88-.42,3.66,3.66,0,0,1-1.35-1.22v1.55h-2.3V181.4h2.3v5.24a3.43,3.43,0,0,1,1.32-1.22,4,4,0,0,1,1.88-.42A4.48,4.48,0,0,1,119.47,185.62Zm-1,6.24a3,3,0,0,0,.74-2.07,2.9,2.9,0,0,0-.74-2,2.72,2.72,0,0,0-3.85,0,2.86,2.86,0,0,0-.75,2,2.9,2.9,0,0,0,.75,2.08,2.7,2.7,0,0,0,3.85,0Z" style="fill: #6cbe45"/>
    <path d="M126,192.29a.78.78,0,0,0,.64.27,2.2,2.2,0,0,0,.94-.28l.26,1.93a3.94,3.94,0,0,1-1.79.46,2.39,2.39,0,0,1-1.84-.77,3.07,3.07,0,0,1-.73-2.21V181.4h2.29v10.1A1.13,1.13,0,0,0,126,192.29Z" style="fill: #6cbe45"/>
    <path d="M135,192.47a3.79,3.79,0,0,0,1.23-1l1.35,1.24a5.2,5.2,0,0,1-4.17,1.94,5.43,5.43,0,0,1-2.6-.61,4.41,4.41,0,0,1-1.76-1.69,5,5,0,0,1-.63-2.53,5.12,5.12,0,0,1,.6-2.51,4.26,4.26,0,0,1,1.72-1.7,5.24,5.24,0,0,1,2.58-.62,4.18,4.18,0,0,1,4.45,4.24L131,191.16a2.75,2.75,0,0,0,1,1.22,2.79,2.79,0,0,0,1.56.43A3.16,3.16,0,0,0,135,192.47Zm-3.54-4.93a2.92,2.92,0,0,0-.71,2.08l4.77-1.37a2.13,2.13,0,0,0-2.17-1.44A2.5,2.5,0,0,0,131.42,187.54Z" style="fill: #6cbe45"/>
    <path d="M144.47,184.47a4.63,4.63,0,0,1,1.88-1.84,6.89,6.89,0,0,1,5.8,0,4.59,4.59,0,0,1,1.89,1.84,5.58,5.58,0,0,1,.67,2.8v7.3h-2.38v-3.21h-6.14v3.21h-2.37v-7.3A5.79,5.79,0,0,1,144.47,184.47Zm7,.49a3.43,3.43,0,0,0-4.5,0,3.19,3.19,0,0,0-.82,2.31v2.06h6.14v-2.06A3.15,3.15,0,0,0,151.51,185Z" style="fill: #6cbe45"/>
    <path d="M165.73,186a3.7,3.7,0,0,1,.94,2.67v5.93h-2.33v-5.26a2.14,2.14,0,0,0-.56-1.57,2.1,2.1,0,0,0-1.55-.57,2.3,2.3,0,0,0-1.81.78,2.84,2.84,0,0,0-.67,2v4.67h-2.31v-9.5h2.31v1.78a3.59,3.59,0,0,1,3.41-1.86A3.38,3.38,0,0,1,165.73,186Z" style="fill: #6cbe45"/>
    <path d="M177.93,185.07v8.59a4.4,4.4,0,0,1-.61,2.35,4,4,0,0,1-1.74,1.55,6,6,0,0,1-2.61.54,7,7,0,0,1-4-1.26l.92-1.67a4.9,4.9,0,0,0,3,1,3,3,0,0,0,2-.65,2.25,2.25,0,0,0,.76-1.8V192.6a3.3,3.3,0,0,1-1.24,1.11,4,4,0,0,1-1.78.38,4.13,4.13,0,0,1-2.2-.58,3.93,3.93,0,0,1-1.49-1.61,5.25,5.25,0,0,1-.53-2.39,5.06,5.06,0,0,1,.53-2.35,3.94,3.94,0,0,1,1.49-1.59,4.22,4.22,0,0,1,2.2-.57,3.9,3.9,0,0,1,1.77.39,3.32,3.32,0,0,1,1.25,1.1v-1.42Zm-3,6.45a2.78,2.78,0,0,0,.7-2,2.82,2.82,0,0,0-.7-2,2.39,2.39,0,0,0-1.82-.75,2.35,2.35,0,0,0-1.82.76,3,3,0,0,0,0,3.91,2.56,2.56,0,0,0,3.64,0Z" style="fill: #6cbe45"/>
    <path d="M189.41,185.07v9.5h-2.32v-1.76a3.41,3.41,0,0,1-3.3,1.85,3.29,3.29,0,0,1-2.52-1,3.74,3.74,0,0,1-.92-2.66v-6h2.32v5.27a2.19,2.19,0,0,0,.54,1.57,2,2,0,0,0,1.5.56,2.17,2.17,0,0,0,1.74-.78,2.88,2.88,0,0,0,.64-1.93v-4.69Z" style="fill: #6cbe45"/>
    <path d="M194.65,192.29a.78.78,0,0,0,.64.27,2.24,2.24,0,0,0,.94-.28l.26,1.93a3.94,3.94,0,0,1-1.79.46,2.39,2.39,0,0,1-1.84-.77,3.07,3.07,0,0,1-.73-2.21V181.4h2.29v10.1A1.13,1.13,0,0,0,194.65,192.29Z" style="fill: #6cbe45"/>
    <path d="M207.07,185.07v9.5h-2.31v-1.51a3.46,3.46,0,0,1-1.32,1.2,4.11,4.11,0,0,1-1.86.41,4.49,4.49,0,0,1-2.36-.61,4.2,4.2,0,0,1-1.59-1.72,5.5,5.5,0,0,1-.57-2.55,5.37,5.37,0,0,1,.57-2.51,4.18,4.18,0,0,1,1.59-1.69,4.54,4.54,0,0,1,2.35-.6,4.11,4.11,0,0,1,1.86.41,3.48,3.48,0,0,1,1.33,1.2v-1.53Zm-3.14,7a2.87,2.87,0,0,0,.83-1.86v-.67a2.82,2.82,0,0,0-.83-1.85,2.55,2.55,0,0,0-1.85-.7,2.48,2.48,0,0,0-1.93.8,3.21,3.21,0,0,0,0,4.17,2.49,2.49,0,0,0,1.93.81A2.55,2.55,0,0,0,203.93,192Z" style="fill: #6cbe45"/>
    <path d="M213.53,185.49a3.9,3.9,0,0,1,1.93-.5v2.23a3.14,3.14,0,0,0-2.35.68,2.63,2.63,0,0,0-.88,2.09v4.58h-2.31v-9.5h2.31v1.83A3.48,3.48,0,0,1,213.53,185.49Z" style="fill: #6cbe45"/>
    <path d="M221.51,182.15h2.38v10.27h5.36v2.15h-7.74Z" style="fill: #6cbe45"/>
    <path d="M233.09,181.38a1.4,1.4,0,0,1,.38,1,1.34,1.34,0,0,1-.38,1,1.23,1.23,0,0,1-.94.39,1.26,1.26,0,0,1-.94-.39,1.34,1.34,0,0,1-.37-1,1.39,1.39,0,0,1,.37-1,1.26,1.26,0,0,1,.94-.39A1.23,1.23,0,0,1,233.09,181.38ZM231,185.07h2.3v9.5H231Z" style="fill: #6cbe45"/>
    <path d="M244.12,185.62a4,4,0,0,1,1.58,1.71,5.54,5.54,0,0,1,.56,2.53,5.43,5.43,0,0,1-.55,2.51,4.09,4.09,0,0,1-1.56,1.68,4.53,4.53,0,0,1-2.34.61,4.11,4.11,0,0,1-1.89-.42,3.56,3.56,0,0,1-1.34-1.22v1.55h-2.31V181.4h2.31v5.24a3.36,3.36,0,0,1,1.32-1.22,4,4,0,0,1,1.87-.42A4.46,4.46,0,0,1,244.12,185.62Zm-1,6.24a2.93,2.93,0,0,0,.75-2.07,2.86,2.86,0,0,0-.75-2,2.47,2.47,0,0,0-1.91-.8,2.51,2.51,0,0,0-1.94.8,2.9,2.9,0,0,0-.74,2,2.94,2.94,0,0,0,.74,2.08,2.54,2.54,0,0,0,1.94.8A2.48,2.48,0,0,0,243.17,191.86Z" style="fill: #6cbe45"/>
  </g>
</svg>
