<svg id="9f13d77a-4279-4c00-9d2d-2a6e2b3c21e9" data-name="Calque 1" xmlns="http://www.w3.org/2000/svg" width="14.62" height="14.44" viewBox="0 0 14.62 14.44">
  <title>mandatory</title>
  <path d="M14.62,6.5c0,1-1,1.51-2.93,1.51-1,0-2.11,0-3.18-.14l-.11.35c2.53,2.08,3.79,3.46,3.79,4.11a1.93,1.93,0,0,1-.76,1.41,2.23,2.23,0,0,1-1.5.7c-.95,0-1.82-1.83-2.63-5.5H6.9c-1.27,3.34-2.32,5-3.15,5a2.52,2.52,0,0,1-1.52-.61A1.7,1.7,0,0,1,1.44,12c0-.83,1.47-2.12,4.42-3.89l-.1-.4c-1.29-.1-3-.34-5.09-.7C.22,6.86,0,6.43,0,5.73A3,3,0,0,1,.4,4.19a1.2,1.2,0,0,1,1.11-.71c.66,0,2.25,1,4.75,3l.31-.21a29.65,29.65,0,0,1-.88-5,1,1,0,0,1,.6-.87A2.64,2.64,0,0,1,7.65,0C8.79,0,9.36.4,9.36,1.21A17.91,17.91,0,0,1,7.9,6.33l.28.28C10.71,5,12.32,4.19,13,4.19A1.34,1.34,0,0,1,14.14,5,3,3,0,0,1,14.62,6.5Z" style="fill: #c00"/>
</svg>
